<mxfile host="app.diagrams.net" modified="2024-05-04T22:06:40.809Z" agent="Mozilla/5.0 (Windows NT 10.0; Win64; x64; rv:125.0) Gecko/20100101 Firefox/125.0" etag="losMFwot3_494XojLbQa" version="24.2.7" type="github">
  <diagram name="Page-1" id="8wQfhHXfYOs6j9WGQ4Jg">
    <mxGraphModel dx="1579" dy="862" grid="1" gridSize="10" guides="1" tooltips="1" connect="1" arrows="1" fold="1" page="1" pageScale="1" pageWidth="827" pageHeight="1169" math="0" shadow="0">
      <root>
        <mxCell id="0" />
        <mxCell id="1" parent="0" />
        <mxCell id="kIkZqFilC5yO_GPzNjYG-19" style="edgeStyle=orthogonalEdgeStyle;rounded=0;orthogonalLoop=1;jettySize=auto;html=1;" edge="1" parent="1" source="kIkZqFilC5yO_GPzNjYG-1" target="kIkZqFilC5yO_GPzNjYG-15">
          <mxGeometry relative="1" as="geometry" />
        </mxCell>
        <mxCell id="kIkZqFilC5yO_GPzNjYG-1" value="UsuÃ¡rio" style="shape=umlActor;verticalLabelPosition=bottom;verticalAlign=top;html=1;outlineConnect=0;" vertex="1" parent="1">
          <mxGeometry x="285" y="310" width="30" height="60" as="geometry" />
        </mxCell>
        <mxCell id="kIkZqFilC5yO_GPzNjYG-3" value="" style="shape=image;verticalLabelPosition=bottom;labelBackgroundColor=default;verticalAlign=top;aspect=fixed;imageAspect=0;image=data:image/png,iVBORw0KGgoAAAANSUhEUgAADwAAAAhwAQMAAACqcFkxAAAABGdBTUEAALGPC/xhBQAAAAFzUkdCAK7OHOkAAAAGUExURUdwTFFl9r4ACB0AAAABdFJOUwBA5thmAAAgAElEQVR42uzcTXbbOBYG0PhooCGXoJ00lyYvTUvREjT0QMeoSqo6STn+kS08EHi437xDH14BJN7H6m/fRERERERERERERERERERERERERERERERERERERERERERERERERERERESS5H+h//rDkzu8bZYS+s/vysk93jK7Uh6D/303ecscg4H3pdikN8yhlNg99G/gcnafN9ygg4GX71dwozfcoIMX2A9gm/Rmb9DhwIf4S8ibZ9QfN79c4oFt0ptkbQD87zVs0htkXxrc/OO/Fzm5381TWgI/u99bHIF/5NriV+Q9a5MjcPzi+nkV71lbHIHDgR9+AXvP2uQNK3ht/QbsPWuTN6xg4N1vl7m66xu8YX3PYxtg71nt8vvOGQq8L422CvlP1v/c91Mr4Is73/qIFA28lFZ7hbx6RIp+Nr4AdlRqfkQKBj4US3jzBRz5aHwJ7KjUIC+2zVDg9eW1TDvazjiin4x/AFvC7RdwJPDxj4uZdjRfwJGr6k9gxXBwDk2B/7yYJRybh1du+XOSq8nrCzhwRvwasCXcegEHAu+KJdzBAo6bL70KbAm3XsBxwPtiCXewgOPGS68DW8KNF3Ac8FIs4Q4WcNyKWool3DKl9f1+6xdlCTddT+XSGtgSbrqA44DXt66oVGq5gOPqpDeB9cItF3Ac8LFYws2yL+3v9tvAlnDLm31tv2n4wLLhAo47tbxzTR9YNnvfiQN+KJZwq+zeu9dlC2D/pVKbkUPkvX7/V3Wh0motRT0P3wc2r2y2gKOA9+9f9cylyets3KH0A2DDjmpZtgHe6LKGHK02y4+AnZTabJVhwIePrmvYET/kiDyxHDa6rjNSoxv94Q/LsKPNQop6GH4M7KTU4IwUB3z88MKGHQ3eZeNOpB8DOym1uc3XrbYOJ6X7s7vhNj9vBuyk1OAVKwr44RZgJ6UWd7lsd2mvWfGvWFHAu5su7TUr/BUr6kl4G7BOqcFNjgHeb3jtabKW7fbJG4G9ZoW/YgUB3/b495rV4B7HzISXLX9dXrH6AfaaFf2KFfQcPNx6da9Z4bf4ku/qU+TWOxwz819vvbrXrOCH4NbAXrOCX7GC3nOO2/6+vGL1A+zbrNiXnKCn4O2X921W9A3eGthR+AvZf+IGR+yRD5+5vqNw5EtsB8COwrH3N2IF7crWzwiH4H6AHYUjDykx9/dT7wCOwrHrZ3tgR+G4Q3AQ8OeeEY7CcYfQoNv7SWBH4cgdOgL4k3uIo3Do3b2k/BPs0D0BOwrHvcGGnFLWYo8OyzoisD365jx89t5GvMMeiz06KsuQwMaVcbtjxOr59N9gXBm3Q/cBbFwZtkMH3Nsv/Mrs0WFPv06A7dFht7b+IXRX7NEd7dCdAJ/pBe3Q9R9/+2KPjsmXlk4nwPboqB26F2B7dNAOXf/Ofu13pvYP2qF7AbZHR93YS+2/41Ds0R3t0N0A26Njduj6B5S12KM72qH7AbZHh+zQ9bfGbv4QO3RfwPbokB26fiH81T/EHh2zbvoBNo+O2KHr74z9/CV26Ijb+lDs0T3t0D0B26Mj7mrtxv+Oh4U9OmKH7gn4RLLy9Cjgru6LPbqrHbonYHt0xE2t/O66FHt0Vzt0V8D26NqzhfqF8F3A/jvD+jt0beBDsUd3tUPfArz7RPN06OnXZof+8Ln38Nnn5H2/Nnt05dHC+2APX+iQ7wP2/9dRfVN8W2v5EsSx2KMr5xgCvHxxrR2Dfm526KqPvd2Xn5d3/jWGWXUPnm843fH4vhf4TLTunvjKmlnueSe6968xzLrxTffrwMd7Xorq/zl26Lp3dHffDn8/sGFW1XPny212ufN/vyv26J7GWC+B1nvfi+4HNsyqWDS83BPv/y8U93V/cHKoCVxhPFEB2DCr7g79a4etMYCqAGyYVfWR9wu4ispS7NF9HZJ+AtdZd0vNLUXuH2P9fOZV2lkrvBM4KNUcK/wf+Fjp2VkD2DCr5jvrPwtmrfUPVQE2zKo3xvrHpcq/82MvWKvtKVLnkPQdeCmVcq4DbJhV8ZD097NzX6rldKzyzzgoVRtj9RkHpXqHpC5jmFXvkNRn4FY7JPUZB6Vqh6Q+46BU7ZDUZxyUqh2SOo2DUuJDkoNS8kOSRin7IclBKfkhyUEp/SPYQSn1Icm0MvshyUHpW70O10HJnNJBySHJtNIhyUPYIclBaY45pYPSBI/gyaeV+xmAZ55WrjMAz/wQnsF35ofwbgrgiQ9KyxzAZ49g00qPYNNKp2DA3rGMOgB7jTbHAuyUZFg5E/CsB+EDYHMOdQNgo6xecwRsUqkwBGxWaRQN2KTSMBqwWaVRNOAZJ5WzDqMBG0UbRgM2jDaKBmwUbRgN2DDaKBrwnKPoSYfRMwFPOYzeATaKNowGbFZpFA3YpNIwGrBZpVE04EknlXMOo6cCnnFWWQADNow2igZsFG0YDdgw2igasFG0YfS8wPMNow+AjaINowEbRhtFAwZsGG0UbVZpFA14YuDphtE7wEbRhtGADaONogEDNozWNRhGG0UDnhp4tmH0cTbg2YbRBTBgw2ijaMCADaN1DYbRRtGAARtGzzyKnm0YfQAM2DDaKBowYG2DrsEw2igaMGDD6LlH0XMNo3eAARtGG0UDBqxt0DUYRhtFAwZsGD35KBqwtkHXYBhtFA0YsLZB12AYDRiwrmHeYfQeMGBtg67BMBowYF2DYbRRNGDA2obpu4aZhtEFMGBtg1E0YMDaBl2DYTRgwLoGbYNR9DzDaMC6BsNowIB1DdoGXQNgwNoGXYNhNOCJgKftGmZpG3aAAWsbdA3aBsCAdQ3aBqNowIC1DbqGiYbRgHUN2gajaMCAtQ26BsNowIB1DdoGwBMB72cGnqFtWGYGPgMGrGvQNgAGrGvQNugaAAPWNugaZmsbAOsatA2AAesatA26Bm0DYMC6Bm0D4ImAD3MDXwADViZpG3QN2gbAgHUN2gbAgHUNU7UNgJVJ6iRdg7YBMGBdg7YBMGBdg7YB8EzA6+zA2euk4+zAV8CAdQ3aBsCAdQ3aBsCAlUnqJMATtQ17wLmBF8BnwIB1DdoGwICVSeokwICVSeokwPO0DXxzA+sakrcNgJMD6xqS10mAkwMrk5LXSYCTAyuTktdJgJO3Dcqk5MC6huRtA+DkwLqG5HUS4OTAdJPXSXRzAyuTktdJgJMDK5OS10mAk7cNyqTkwLqG5HUS4OTAyqTkdRLg5MDKpOR1EuDkwMqk5HUS4OTAbJPXSWxztw3KJMDqJGUSYGWSOgkwYGWSOgkwYGXSTHUS4OTAyqTkdRLg5MDKpOR1EuDkwGST94Vkc9dJyiTA6iRtIWDA6iRtIWBlkjoJMGBl0kx1EuDkwMqk5HUS4OTAyqTkdRLg5MBck/eFXHMDK5OS94WAkwMrk5L3hYCT10naQsDqJG0hYMDqJG0hYMDqJG0hYMAz1UnaQsDqJG0hYGWSOgkwYGWSvhAwYGXSRH0h4OTAyqTkfSHg5MDKpOR9IeDkwMqk5H0h4OTAyqTkfSHg5MBMk/eFTHMDawuT94WAkwNrC5P3hYCTA2sLk/eFgJMDawuT94WAkwNrC5P3hYCTA2sLk/eFgJMDawuT94WAkwMTTd4XEs0NrC1M3hcCTg6sLUzeFwJODqwtTN4XAk4OrC1M3hcCTg6sLUzeFwJODqwtTN4XAgasL1QHAwasL1QHAwasL1QHAwb8QTL1hepgwPMlU1+oDgY8XzL1hQtOwNMlU194wAkYsLYwV54AA9YWDpwrYMDawoHzDBiwtnDkAAasLRw5j4ABAx44eQphdTDgGZOnEF5gAp4wefrCA0zAEyZPX7jCBAxYHZwtV8CA1cED5xkwYHXwyAEMWFs4ch4BAwY8cLIUwupgwHMmSyG8oAQ8ZbIUwgeUgAGrg/PlCTBgdfDAuQIGrA4eOM+AAQMeOfp+wIBHTo5CWB0MGLA6OGVOgAGrgwfOGTBgdfDAuQAGDHjg5CiEV5CAJ02OQvgIEjBgdXDGPAMGrA4eOYABAx45GQphfT/geZOhENb3Awas70+aM2DA6uCBcwEMGPDAydD4rxgBT5sMhfARI2DA+v6ceQYMWB08cgADBjxyxm/89f2AZ874hbC+HzBgfX/anAEDBjxwxm/8DxABT5zxG/8VImDA+v6suQIGDHjgjN/4MwQ8dfT9gAED1vd3m0fAgAEPnNEbfx90AJ47ozf+C0LAgPX9eXMBDBjwwBm98V8RAgas78+bK2DAgAfO6J90EAQ8eXzQARgwYH1/t3kEDBjwwBn7kw4fdAAG7IOO1DkDBqzvHzgXwIABD5yxG/8VIGDA+v7MuQIGDHjgjP1JBz/AgH3QkTuAAQMeOSN/0uGDDsAyMrAPOm7ICTBgwANn5E86FnyAAfugI3cugAEDHjgjf9Kx4gMM2AcduXMFDBjwwBn5kw56gGVgYB903BTAgAGPnHE/6fDFDmAZGdgHHTflBBgw4IEz7icdCzzAMjDwAd4tuQAGDBiwL3Z6zRNgwIAHzrjf7BzhAZaBgdndlGfAgAGPHF/sAAYM2Bc73eYRMGDAgH2x02tOgAEDHjijfrOzoAMsAwMf0N2WC2DAgAfOqN/srOgAy8DAR3S35QoYMGDAvtjpNc+AAQMeOT7JAgwYsC92us0jYMCAAftip9ecAAMGDNgnWb3mDBgw4IEz5kdZB3CAZWDgFdyteQIMGDBgn2T1mitgwIAHzpgfZXEDLAMD+yTrEwEMGDBgn2R1m0fAgAED9klWrzkBBgwYsE+yes0ZMGDAA2fEj7IO2ADLwMArttvzBBgwYMA+yeo1V8CAAf/F3t3dWIoDYRhuxAWXhEAohAahEQohcMmFBSuttNL0Ts8cMPbnKvxWAm7XUwf/1ewCTM+d1TgABhhggOm5MxsAAwyw5/DXlEXPHcAEwNWEv6Yseu4AJjwD96DdiRVggAEGmJ47q7EBDDDAANNzZzV2gAEGGGB67qxGABhggAGm585qHAADDDDA9NyZDYABBhhgeu7MxgwwwAADTFOl1VgABhhggGmqtBorwAADDDBNlVZjAxhggAGmqdJq7AADDDDANFVajQAwwAADTFOl1TgABhhggGmqNBsAAwwwwDRVmo0ZYIABBpimSquxAAwwwADTVGk1VoABBhhgmiqtxgYwwAADDDDAdM0WiR1ggAEGmK5ZqxEABhhggOmatRoHwAADDDBds2YDYIABBpiuWbMxAwwwwADTNWs1FoABBhhggAF+Hj1c92MFGGCAAaZr1mpsAAMMMMB0zVqNHWCAAQaYrlmrEQAGGGCAAQaYtugicQAMMMAA0xZtNgAGGGCAaYs2GzPAAAMMMMAA0xZdJBaAAQYYYNqircYKMMAAAwwwwE9jACsmNoABBhhgQYxgxcQOMMAAA0xbtNUIAAMMMMAAA/w0sIqKA2CAAQY4f9D3HhkAAwwwwAAD/DDoe4+MGWCAAQY4e9D3DjDxUywA/xerto4WTS8wwN+/ZbLjmGpr4QW4VyVCtJubVYW7AvxvbLpS+p72AWBF2g9ta0HQPZN5AR50aRBstBZd6QL8/x+w4CcchC/dG8C/lXmn/AHn/gkDfP7e9pD5J3wom1W8AI/KJIiXxazFuwP8+31t5tsO6UMKwD/1Do/alE8AZ035qr0YXaSHfC/Ak/CTmXnfo+1HCgAH7QdjLz+7yoBX7ePVor2I9QIs3ENn/miKG5IAPrSbuiD+QB3VA2/a16tVfFEH8M8tD61yQci55jsBFq+J+SrqsDK/aoCD9mZll1/k1A68aVtIVnnHig/gfOeIRTviLJ9g7cDabd2h30XOdQMH7fPGrr+qqxz4zw0PWVbFVd+y4gM42zlx0dbUrJ9h5cDiu5UC54SlauBD22MQCryX1Q38t36HDKviVqBnxQdwrnuAVVtUq7Epvh940d6ezQUOCnUDa1+wjhK3sVUD//0tLfmqGEp0JfkAznQNsGsH3UrMcasZeNVu3dcSX6mqgRft/ehc4jrWB3CmQ6K4T6jIm3fNwJ/6lRJve4J2uEv7jHcDB+3CsBeZZM3An75eibc9a5GNhg/gPF+vTxlPvO35dCvcASx+Km20w7VF1qE3A38cVrqly7SNrhj40C79ocwsfQAXWp0G7XAjwOIrgKTb6FVbT9e/U68F/pzxpNuez60VHcCnNuNJtz2ztp5cAefZX4oLy/A03wl8pbQT7mtDqQ9VtcBXMp5wX7trhwP4UsYTbqOvPNsNtQJn2X1cyXjCfe2qrac7m7uXAi/agRdtPQF8aeKNdrgWYPXapD2ONrUC5/h0XbsASHZOCtrhbq4NbwS+lvFk+9pr7+4jwKc248n2tZu2ngC+mPFkI6/aenIGnGPe1zLeatPcFZvo+4CvZTzZvnbW1hPAV08P2gvDBmD1FW2ig8vVV9lKgTNsLq9mPNHBJWjr6f5u8nXAQTv0rq0ngC9nvNdmeQBYPO1OuxD2dQKP5bYeiQ4ui7aeYr5VLwO+mvFEB5dZW08AX39Ekx7KchyEKwW+PHaSg8v15uQ6gdOfDg9tcYWCUw1VAl+f9aD9FY0Ai79bSQ4um7aeAL6R8STAq3Y4d8Alb+CTnEwX7XCR2403AV/PeAuwR+DLx+A0J9NZW08A32kWlp66M9x0OADOcL2j3eEdJYu5SuA7k05wMg3aeoov5tcA38l4gpPprq0ngG9lPAHwph3OHXD6neWdjPcAvxs4wcl01dZT/InhNcCrdvRFW08A38p4o01xWyFw2aJutKtgA7B63+EdeAE489XDIa4ngO9l/PHVQ9DWkz/g5CeHexl/fDLdtfUE8M2MD86Ge3ImrBL48fAbwGLgexnvtBnuARZPudUugl19wEPZbYd34A3gzFcPs7aeAL57ead9r2sAVr+QOhvOH/BYGPjh3dIBsBj40I4ftPX08NT/BuCgXSL2wtMFGODCUfqb1WvXwAFg8a7j4dXDqq2nxx8sgAE2Dnw34w/vlhZtPQF8O+MPgWftcA6BS7c4NAD7Ap61f8CXtp4e3+v4B/6yDfwFsBp40ua3NuDyn6xRuwROAAOc9YvlHPh+xh9dHu7aegI4IuODo+EAjsj4o8vDDWDxwf9+xh9dHq7aekpx7gcYYMvAq/YvWLT1BHBExltHwzkE7ooDN9r0Aiyfr3YP2xSvaIABNgwc8Sc8uDyMuQkGGOA3ASc+FsZk/MHtcNDWU5pzIcAA2wWOyfiD2+FdW08AA2wuEj+u7Noa28rPGOCXA291AcdMt9P+fHqAxR8sgF8O/OD6f9HWk0fgEWCAM2f8wfX/rK2nVNtKgAG2ChyT8QfX/1/aegIYYHOR+Opd+zfE/cMggAHOfPvuF/jQLhPBwJQBBrhoWPheDdr1bwQY4NwfLa/AuwfgAWAxcPT7zgYwwJUDJ77Wict49PvOqq0ngGsEPqsCjst49PvOoq0ngAF+O/DiAbitCbi1ABxdZTPAAGef81wTcORktT+eBmCAAU66HjkZziOwjSND5AvtATDA+YGXioAPLXDQDgdwNPAIMMAAG3hZic145Avtrq0ngOsEXisC3gEGOOFfsWnrCWCA7UXauW4+gHuAxcCdNrW9iUkDDLA54NUHcAewGDjy0XIB2MmREGAnwEuNwDvAHyOyiWbW1hPAAL8deAbYWkwmgCObaL609QRwncABYIDfAvwlBT60wwH8AHgCOFOcAAMsyLhn4APgTMfxYGNhAhhggAHOFFZOhFHAO8BugAct8AgwwILDIcAA2wLetcAbwG6Aey3wUA1wCzDAAOd6JHUHvGmBV4DdAHda4B5ggN8B3AEMsCLjroEXgPP8HYuRaQOcaS8AMMAAG5kpwJmi9ww8Awyw4vi/ApznVQtggAE2cqUDcKYYPAN/AQxwwuEAfnLr7hl4AxhggAF2APwFsLUYHQMfAAOc8oPxx9gBBrh64AlggAEuDHwAbC4mx8ABYIAlwAFgc8ATwAADnBJ4BBhggB1vNgAGOOXpxMyXC2CAAQYY4FqBm1qBR4ABBjgl8OAY+AQY4FcA7wADnBB4Axjg2oFbgAEG+GPMAAMMMMAAAwxwvuFcAncAAwzwx1gqAX6S8R5ggAEGGGCAqwLuPQOvAAOsAV4BBhhggAEGGGCAM84TYIABBtgh8AYwwAADDDDAAAP8LUaAAQY4a68SwAADDDDAAAP8RuAJYIABBrh24AAwwAADDDDAAAP8LU6AAQYY4NqBD4ABBhhggAEGGOBfo7EDPAAMcNnhAK4X+ATYGvAIsPjdG2CAAQYY4O/RAgwwwAADPAMMMMAAAwwwwAD/Ep0d4NH8cAB7Ap4AjohQLfACMMAAAwwwwAADDHA9wD3AAIuAJ/PDAfyoe1QMnHbiZv+T7wADDDDAAAMMcJkYAAZYBGx/OIAfdY9qgRN3/J8bwAADDDDAAAMM8GuAT4AzvNH9NWZtxuMn3gIMMMAAJ+k9ABhggAG2Dtw6GA7gB61JYuAOYIDfADwBDDDAACcA7hwMl6m5xBPw6gW4BxhggAEGOC/wCrAYeNNmPB54qAT4BBhggAEG+KgEeNdmfAMYYM0rC8AAAwywfeCgzfgOMMCaGx6jwA3AAAMMcIp5Ttp6Sg18AmwL+AQYYICLAx8Ai4FPbcaPF0wcYIABBvgP0Saf56zNOMAAiyYO8MuB50qAFy3wDLAT4Fab1g5ggAE2ALwALAZetRmPBe4BBvgNwJ134BVgMfCmzXgs8AAwwJrFAuAswwEcG7s247HAI8AAA/xTBC3wDrAT4FELPAEM8BuA05/3Dy1wANgJ8KQFPgH2AXyYAV4rAT61GY8EbgAGGOCkl+7aegJYDdxogVuAAQY45XGh1dYTwC8H7moBHqxMtNXWE8DqiXZa4B5gL8ArwGLgTZtxM8AbwIaAB4CjY9cCbwC7AB60eR0BFrd0DNp6AlgNPGqBJ4C9AAeAxcCHNuNxwGctwKN74ANgMfCpzTjAACd8fU6+2/MIPGt/UgB7AG60wC3A4hf/RltPAKuBWy1wB7D4YbTV1hPAauBOC9wDLD4Qdtp6AlgN3GuBh2qAJyMz7bX1BLB6poMWeARY/F44aBM7Gpl2PcCjFngCWPxeOGoTC7AaeNIOdwIsfi88AQY43XANwOL3wkYL3AIsfk5qtPUEsBq41QJ39QDnmGnE7XCrrSeA1cCdFrgHWPyc1GnrCWA1cK8dLsdjUvz/q9of8K7NOMBq4KDN+P16GgEWA49a4Alg8VRHbT0BrJ7qpB3uBFj82nAC7Ap41v4ZJh6TAM6XcRNvDTaB89Ty7cvDRltPAKsvo1ttPXUAi4E7LXAPsPgyutPWUx7gsyLgXZvxu/U0ACwGHrTAI8Diy+hBW08Aq/cbo7aeJoDFwJMW+ARYPNdJW08Aq+8qtaltABYDN9rhWoDFl9HtP+zdwZGlRhLGcQgOHDEBUzANPFiXMIWIdYAjBwIU0mg3ZjQ90zSq/Cor658GNK/ql2Rl5XsjAVwa8Kbd8a/lU18RsFUy79od/1o+DQCLgQct8AiweFY5aPPJCnipCPjU7vjX8mkCWDzKmrT5NAMsBp61wDfA4oZj1uYTwOrFavOpBVg8ymq1e9sBLAbutI/rARbPKnuAywPetTv+lXwaABaPsgZtPo0Ai0dZozafppqAew/Ak/ZxM8DiUdasfdwNsHiUdQNcIPCi3XEHg6xX/4eucoFX7Y4/z6cOYPGko9Nubg+weNLRa/NpAFg86Ri0+TQCLAYetY+bABZPOibt42aAxZOOGeASgZ/fTMX5dAMsnnRo86kFWLzcVptPHcDiSUen3d2+LmC7W//jm2mvzacBYPFFeNDm0wiw+CI8avNpAlh8EZ60+TQDLL4Iz9p8MlzwVhnwot3x7Nfg6oBX7Y4/y6cOYPF6O20+9QCLL8K9dnsHgMUX4VGbTyPA4ovwpH3cDLD4IjxrH3cDLL4nae/dLcDie1KrzacOYPGCO20+9QCL70m9dn8HgMX3pEGbTyPA4nvSVOzjAH7U1ya8lz65J921AZuWrCd9rTafWoDF96RWm08dwOIVd9p86gEWt9FJe4A983L36oBP7fM/z6cJYPHXDZM2n2aAxfck7eNsm+gagVftjn/WRncAi/vKTptPPcDiNnrQ7vAIsLiNHrX5NAEsbqNnbT7NAIun0dqu3biJrhJ41e74krOJrhJ413a1W8bvRusEPrQ7vjvO5pjAl7arPXP2WFUC3+LfV+T7OUetwKu2q10y9lh1Au/ayeGWsceqE/jQ7vjuNZlzxWS96Ev78DNjj1Un8O9ORW1T194Aa7usLsDjAP7Nqk2+nd3y9Vhf+v/rxQE+tU3PkXGpdQLf2qbnyjbmqBZ41TY9S7YjuFbgXfsDqS3bEVwr8KmdOxz5Vlop8K2dO1zZjuBqgVft3GHJdQRXC7wrj+BfHcIDwOJDeNI+bgZYPI7WnvntDbBdbNozcVUeCAD/omiO2n2eABZflAzPxCvPJalm4E17a1nzVOiKgU/tz2eOTMusF/gWl8wsPXTVwJu2ZG4Zphx1A1/ax54Zphx1A/+j7zEfDC/yOXTtwKeuxfp5qyeAta+woOdZMrzAdQOfyhf4x72eagaeb/0r3Gkf198Aa+/C4r79BlhbpCftbs8Aa4XFJ6JygbUD/7kDo/Jxuy6bfjFyrw04eAAMMMAAAwwwwAADDDABMAEwwAADDDDAAAMMMMAEwATAAAMMMMAAAwwwwADDAjABMAEwwAADDDDAAAMMMMAEwATAAAMMMMAAAwwwwAATABMAAwwwwAADDDDAAAMMMMAEwMT/A2CAAQYYYIABBhhggAmACYABBhhggAEGGGCAASYAJgAGGGCAAQYYYIABBpgAmACYABhggAEGGGCAAQYYYAJgAmCAAQYYYIABBhhggAmACYABBhhggAEGGGCAAQYYYAJgAmCAAQYYYIABBhhggAmACYABBhhggAEGGGCAASYAJsyYOn8AABAOSURBVD4N/td2AAMMMMAAAwwwwAATABMAAwwwwAADDDDAAANMAEwADDDAAAMMMMAAAwwwLAATABMAAwwwwAADDDDAAANMAEwADDDAAAMMMMAAAwwwATABMMAAAwwwwAADDDDAAANMAEwADDDAAAMMMMB543AIPMECMAEwATDAAAMMMMAAAwwwwATABMAAAwwwwAADDDDAABMAEwADDDDAAAMMMMAAAwwwwATABMAAAxwhdofAIywAEwATAAMMMMAAAwwwwAADTABMAAwwwAADDDDAAAMMMAEwATDAAAMMMMAAA/wsBljSxQYwwAADDDDAAAMMMMAEwATAAAMMMMAAAwwwwAATABMAAwwwwAADDLCzWB0C97AATABMAAwwwAADDDDAAAMMMAEwATDAAAMMMMAAAwwwwERI4A6WdLEADDDAAAMMMMAAAwwwATABMMAAAwwwwAADDDDABMDEL8Ohb9PCAjABMAEwwAADDDDAAAMMMMAEwATAAAMMMMAAA+wjLo/ADS4AEwB/F/8txeM/AL+KtZT3rQf4VSxTGcBHB/C7VQ5lAG8twG/iLOV3fEszA/ym8jXJN86q5Z0AfhF704wlABt8zjqAt0L+00xrk7xZqAN4KWT8afCj/zqA//ybBRzCp8EcvgrgvxZZwCG8G6z9dAk8GyyygIvSarX26MBHGd9gfKumE8Bvmuj0O2cwp/zrYw4Avyt9/qeV3/KwB/jNLamE34l8+5gdwK9uSf4vSqfJ75VqAP7fGp1flHbTxUcGPv7+q86nlevfH3MC+OWr4fyi1JgUmhqAt8bk3TC5JCXv9msAXmy2zuSSlLyNrgG4jB/ULzaf0idw0lp6mV2/jCBsKn9c4O+2zvFFaTdKwwqAv9s6x98orUZpWAHwZvmD6/SNQuJesALg1eoPWzn0AL9rTz0Ps74vMy3AL5toxxcls18sxQc+7WqD1YecAX69QqfDrF20/IjA2w9/2elFaTHLwvjAq+lvCQz6hLStYHzgH18On8Osfyh0ZsXfS4xmL4fPGr3a/fA/PPBP36a4vySlPUfCAx+Gf9vsM04Av2yifQ6zNsP1hwdeG/81ujFMwvDAi+2g26RNSNkJhgduGvc1+qcKnXJkHh34g58kufvCYbH8UVp04MP6y0iTHEz4EWsEdvaFww5wwkGWwxr9QYVO2OlvLoETvmMf/XlXXzgYp2B44NV7jf6ohvbRgY3vga33Cj3a/vn8kVDgcF6jL+PP1/gM4w0cfFdo6+XH+sZ/8V2jV9sT6nAKbPl1kqsabV1gdqfA1kscXFdo6/SO1UafjecavRrXl8UpcEqAxnGNvrIsPlYb/XESD44rdGecQNHa6M1xjV6Nk+9wCzxaL3J2W6Hj/+QucRZfjdsavVsfT5tb4JS/T2/c1ujF+pMtboFb64POw+86Pq4tvXVuh2ujd/N9TPrBErYfp2PgyXqZrdMKnbL9OxwDj9aVMH+NPjPVLh/Rm78p2Wv0Zt5ero6BO/OdbHxW6MH8CfHa6MP8FEhYoVOeHI3nmM23svNYoQXrjtdG3/Y5lOxDCSpXvGHlr5qNrOPKw7653FwDp1zpbv+2pEq60f4RAdvoU3AMpLmcJz02FtfAjf15l/MqLCgql29fSS57uwRL6lbENnqzH4im2fyUfd/hHFix1mxX4S1jVkdsoy/FOZBixiTo00MOK395CGe6CksqSuM9FCUx01V4FeTb5R44ZfncFa3cv9/7lE3f6R5YstosV+E9a06HbKPvxlObJWk7NvfAneLUy9FmHZJysrgHbiVVMUObtSoOJf9NdNo2+pRMzP5leztLnhJzWHlrTgI/xeQoAHiU1EV5myWZ3RXQRMsWLG6zjtwJHbSNPjVnvZtSshQAnHTnL9FR4CTRSuixZCktbbO27AUrahu9iZ7z+s1K2gscRQCrliwcSO/50zlqG32pzoK3vY+olQs7rPzd3spuSofoznA3ZcStqloOXuBBVa7CdllHk/0VPj2sNeyw8pIdBq9ORlUvF7eN/u1wRzLsuFRju0KaaOWqJcOOzUUux22jD9lx/6LzSfv8ppSYZRsseIV32YXhLAZ40hUu+1dYl19HMcCD7Ay0f4V3JwuNO6z8JLHnjC9w4vqxFgOctsu6hMn0xaupMJcCDys/yew53wvcCxM5cBv9yVvU53uB085ZzoKApSufc73A0jyO3EbfTa5XeBe2GgU10ckvL6vy2p0ts5aCgFvli2R3F96VB1FJTXTq0+mz9mPK8gKLFxl5WHlrC8bDQzHxU4+igAfpIWzzvfBn99Jemk6hh5Wf3iDaDC9w6qxaiwJutS9T6orx6EzUHvixh5WfXyHSA3/2RnXiHI7dZW3iM+FBzzOInxd6WPlg+ZO6YiZ+4F4YcK8uYJ16v8UnQvBh5YP1j9qESn0mLIUBp07wXfvEVX0GldZjJf8S75SeCofH9cXusp5cEyfhw1p9hYo9rHwyyWuFz8qwvOBd1pN7Yq8rl6lvZcX1WMlr2KMuZFKdBsknZ015MWfI8VZVLVPXp7NA4ClHG9JrzoLkLeRRIPCQJclHTbFMXZ62AoH7PMeUZGSY/PvntUDg5JvwLMs7wUGQ/uvnpsS485xTvaDZSd1fXEUC59qF0f5NypS7wYeVjw+q9x3QIigSMQaVebfBupfNlrrBu6zT+MmPEyj1JanAQaXJSfV8HzrTgzD5P5Ups8cy+Bclm+Xx8LzRSX5JOgoFHrPV6BfCX/jbc7bmInqX9ZV5wGDmm/6fUayFAndZd6I38jXI20J7LIMu6zAqIF/6tm6ixzI7rC6bCrLnTduzWOAx92ll8V1d+gq9Fwucfy+elNPsWbsVC5y+y7qS59iX6+NNj+VrM+a0f89B0kbust6cV13SvzbSY5nuxpXwqDiKzVk3Mbg5sOZE4yOD/ybXVjCwwXbsSc6L1U9NKrnHsuiyMp9Y6Sv0XbJvuP1ob3osj12WZ+C9aOAB4Mg9lkWXlbmi0WMF/+qFHsu6yzqCrecsHHgEOHKPZdBlZd6QiR7LuMuKBlx4j5XrH5GWc+Q0pcccC3igxzJO+TUW8F488BALuKfHMu6ylljAS/HATawdqfw/5C/osmIVpDMA8BgKuKXHsj21rljAWwDgLtahRY9luyVnqNVE6LESd1knq4ndZR2hgPcQwH0o4KRfJ60hgLtQOT/RY5n2JdmBR3os06TfIgEfQYDHSMADPZZpl7VGAl6DALeR9iRltjZRIlLf2dNjmXZZ2YE7eizTcyvSrX4LA9wHAm7psSw35YoE/Ec7Z2xkKRDE0E9hYBICoRAahEYohICJMUWte94B01S1NE8R8OcNUqu5vZ+PFqO5hE9JX646ihHg0wjwaHQoCzPWh6OnE+DVCHCYryXY3s4+40TCa58A8MSM9eGp7D4/5bACPPgAjhoYNyvAnc+pjMxYH05Zm40Zec1YYbPnagP4NAM82gDubaaJjPfeZ2mzmQHubAD7/JKEq47LBnCxAzzZjJ6sOb6bsooN4N0OcG/TLRaTOpDx4qcAPLtkTcJzOVx+yGkIeHIBPDFjfbbq2F0Ab4aAOxfAEX3g56jF5OKPJnUvo7WlADwwY31281cTwLsl4N4EsMvvyLjqMLmolyff+g1BjoPpiOCvQtgF8GEKeDBpF6w5vrr6SQAvFqNExpM5PX5GsQU8eQCeieCPQvjwALzbAu49ANca0WoL+Odx9SeHspfS3JLUi9Fiksh4NEkAD0TwRyG8WgA2juDaEF4trqkz38odgYUPFWvAkwPgzqHrZYyvywLwZg24syiQRPA3IVwcABdzwJPDhmAhgj8J4TSAaxZyuzng3uHyz/pdPmV+pQE8GQyKGW//bgD4tAc8GgAeieBPQngzAGwfwTUhnOZwBiL4kxBe9V3obADwe38ziJm9AcC9PuCOCP4ihC8DwC3wfR3Cl/4dLU0AnvRPhy8NX5SMRBPoot7kUyZYIsAzEfzB/T/kAZdGAE/ygCci+IMQ3uUBb40A7uSPZySCPwjhTd2DSjOA3zncqg74aAbwoA64J4I/COGfOuBfO1rEz6cjguND+FIHfDQEeFB/AYjg+DcgFeCFCA4/oFP8+UtTgCdxwDMRHB7ChzjgrSnAL0J4F3egX1tatAGPRHD4K7BpAz4aAzxoAx6I4PAQXrUB/1rTIn1CPREcHsLaBnQ0B/ipyV3agLfmAHfSgH9EcPQyqEgDLg0Cflglk/3p9EIEBw+ip7T/rA0C/km/A7PyAJHyjJIBnpTtJ2UI78qA9yYB98pFciSCg0M4GeCBCA4O4VUY8Nko4FEYcE8E/1+d8K6vJ4Jj10GX8OUsrfJ90jXSzSnsKWMnlSIMeGsWcCc8iC6y40POUxIGXBoGPOnm2EwEh5aNQ/dubg0D/unuCib2lKFGl+41GNlThh5TOsADe8rQEF5lAa9NA77dNmSvZtsRfH9WkQV8NA54UH0POkpS5DklNDr2lJEhXFQBl+YBj6plcqEkBQ4rCQHPlKRAqztEAV/wvVeUdtHnPuF7ryipAt7ge68oJTyokZIUOI5ums5DSbr7KqyagA/o3ixKoo9NSbpblDRnB0rS3Xn00gRMSbqbZkXTeChJd9+FlIAXStJdzZJet1CSworSIXktd8jebRwpAU+UpLB5ZVcETEm6f1Ypx9GRNVZYUZIETEm679Gr4q2E6v2JNCXgnjVWmN0pzv6UpH/VCc6jHQ4dtRZKWjhYY0V5dBEETEl6EGinoOusML1/WkkBz6yxHmjSs7sZhw5aG+x6d3KD6IORJSngEYcOMrxNDjBrrEcevco9MQ79aDGUFHDPGivIo+W6Ow79KNIuOc/ZofnkvNKOpDj0My1qe3s+NMR49Kl2I3HoZ0NLWsAzHxpC3ohDDDAO/dCj0zrexIeGEI/exS4kDv3QozctwDj0U89L+0YMOHSIR688rrdHa91HPgU/9ei8J9bh0BHvROJXAoeOOLIi9bQ49GOPTvxxdcGhAzw6MeAZhw5wvUMJMA793KN3pYfFoZ97dGLAIw4d4NGbEGAc+oXtJX4pBhw6wKNXntVLi84/Uexx6HqPznxoHQ5d/1qk/n6OQ9d7dOFR3TTq/J3Pwr+Hrvbo1Lk249DV70VqwBMOXe3RuwxgHPpV+9hkriLgXkVbasADf/VdfW6ryoPi0O88WmbgB9srj75UbiIO/c76ku/v+Z+Tag+uiDwnH5JeFszkzrfwIalyekkOeGZNWflqHBqAWVM+1ajRLidKcGUB2TXuIcDemt8mAZgS/LoKrxJPSQl+XTElpn1K8Pv5RWJUoAS/fjkuCcCU4NdVOH2/pATXTahF4RZSgt/b36kAGFTvq/Ah8IyU4IqSmd79Jkpw1QSTHvBICa46vS3/I1KCa8as9A1zoARXjTDpT69nxKp6P9I/Yc+IhRBCCCGEEEIIIYQQQgghhBBCCCGEEEIIIYQQQgghhBBCCCGEEEIIIYQQQgghhBBCCCGERPQH6IwG7dqvAWQAAAAASUVORK5CYII=;" vertex="1" parent="1">
          <mxGeometry x="260" y="260" width="80" height="45" as="geometry" />
        </mxCell>
        <mxCell id="kIkZqFilC5yO_GPzNjYG-13" value="&lt;h1 style=&quot;margin-top: 0px;&quot;&gt;!Help&lt;/h1&gt;&lt;div&gt;Mostra como Ã© para ser utilizado o comando&lt;br&gt;&lt;/div&gt;" style="text;html=1;whiteSpace=wrap;overflow=hidden;rounded=0;" vertex="1" parent="1">
          <mxGeometry x="50" y="260" width="180" height="130" as="geometry" />
        </mxCell>
        <mxCell id="kIkZqFilC5yO_GPzNjYG-20" style="edgeStyle=orthogonalEdgeStyle;rounded=0;orthogonalLoop=1;jettySize=auto;html=1;entryX=0;entryY=0.75;entryDx=0;entryDy=0;" edge="1" parent="1" source="kIkZqFilC5yO_GPzNjYG-15" target="kIkZqFilC5yO_GPzNjYG-18">
          <mxGeometry relative="1" as="geometry">
            <Array as="points">
              <mxPoint x="540" y="192" />
            </Array>
          </mxGeometry>
        </mxCell>
        <mxCell id="kIkZqFilC5yO_GPzNjYG-15" value="&lt;h1 style=&quot;margin-top: 0px;&quot;&gt;!gerar-comp&lt;/h1&gt;&lt;div&gt;Gera uma comp aleatÃ³ria ou nÃ£o para uma partida de valorant, utiliza os valores passados como parÃ¢metro para escolher o time.&lt;/div&gt;&lt;div&gt;A tag aleatÃ³rio define se deve utilizar alguma lÃ³gica para escolher os personagens ou se nÃ£o deve.&lt;br&gt;&lt;/div&gt;&lt;div&gt;&lt;br&gt;&lt;/div&gt;" style="text;html=1;whiteSpace=wrap;overflow=hidden;rounded=0;" vertex="1" parent="1">
          <mxGeometry x="460" y="242.5" width="180" height="195" as="geometry" />
        </mxCell>
        <mxCell id="kIkZqFilC5yO_GPzNjYG-18" value="!gerar-comp --mapa &lt;b&gt;bind &lt;/b&gt;--players -- nome1;nome2;nome3;nome4;nome5 --aleatorio false" style="text;html=1;align=center;verticalAlign=middle;whiteSpace=wrap;rounded=0;" vertex="1" parent="1">
          <mxGeometry x="710" y="170" width="490" height="30" as="geometry" />
        </mxCell>
        <mxCell id="kIkZqFilC5yO_GPzNjYG-22" value="Valorant Comp" style="rounded=0;whiteSpace=wrap;html=1;fillColor=#dae8fc;strokeColor=#6c8ebf;" vertex="1" parent="1">
          <mxGeometry x="750" y="260" width="180" height="30" as="geometry" />
        </mxCell>
        <mxCell id="kIkZqFilC5yO_GPzNjYG-28" value="Recebe o comando" style="rounded=0;whiteSpace=wrap;html=1;" vertex="1" parent="1">
          <mxGeometry x="785" y="290" width="110" height="40" as="geometry" />
        </mxCell>
        <mxCell id="kIkZqFilC5yO_GPzNjYG-32" style="edgeStyle=orthogonalEdgeStyle;rounded=0;orthogonalLoop=1;jettySize=auto;html=1;" edge="1" parent="1" source="kIkZqFilC5yO_GPzNjYG-29" target="kIkZqFilC5yO_GPzNjYG-31">
          <mxGeometry relative="1" as="geometry" />
        </mxCell>
        <mxCell id="kIkZqFilC5yO_GPzNjYG-29" value="Extrai os argumentos" style="rounded=0;whiteSpace=wrap;html=1;" vertex="1" parent="1">
          <mxGeometry x="785" y="330" width="110" height="40" as="geometry" />
        </mxCell>
        <mxCell id="kIkZqFilC5yO_GPzNjYG-34" style="edgeStyle=orthogonalEdgeStyle;rounded=0;orthogonalLoop=1;jettySize=auto;html=1;fillColor=#d5e8d4;strokeColor=#82b366;" edge="1" parent="1" source="kIkZqFilC5yO_GPzNjYG-31" target="kIkZqFilC5yO_GPzNjYG-33">
          <mxGeometry relative="1" as="geometry" />
        </mxCell>
        <mxCell id="kIkZqFilC5yO_GPzNjYG-41" value="sim" style="edgeLabel;html=1;align=center;verticalAlign=middle;resizable=0;points=[];" vertex="1" connectable="0" parent="kIkZqFilC5yO_GPzNjYG-34">
          <mxGeometry x="-0.0115" y="-2" relative="1" as="geometry">
            <mxPoint as="offset" />
          </mxGeometry>
        </mxCell>
        <mxCell id="kIkZqFilC5yO_GPzNjYG-38" style="edgeStyle=orthogonalEdgeStyle;rounded=0;orthogonalLoop=1;jettySize=auto;html=1;fillColor=#f8cecc;strokeColor=#b85450;" edge="1" parent="1" source="kIkZqFilC5yO_GPzNjYG-31" target="kIkZqFilC5yO_GPzNjYG-37">
          <mxGeometry relative="1" as="geometry">
            <Array as="points">
              <mxPoint x="940" y="450" />
            </Array>
          </mxGeometry>
        </mxCell>
        <mxCell id="kIkZqFilC5yO_GPzNjYG-39" value="nÃ£o" style="edgeLabel;html=1;align=center;verticalAlign=middle;resizable=0;points=[];" vertex="1" connectable="0" parent="kIkZqFilC5yO_GPzNjYG-38">
          <mxGeometry x="-0.2154" y="2" relative="1" as="geometry">
            <mxPoint as="offset" />
          </mxGeometry>
        </mxCell>
        <mxCell id="kIkZqFilC5yO_GPzNjYG-31" value="Ã© aleatÃ³rio?" style="rhombus;whiteSpace=wrap;html=1;" vertex="1" parent="1">
          <mxGeometry x="800" y="410" width="80" height="80" as="geometry" />
        </mxCell>
        <mxCell id="kIkZqFilC5yO_GPzNjYG-33" value="Retorna os personagens para cada um aleatÃ³riamente" style="rounded=0;whiteSpace=wrap;html=1;" vertex="1" parent="1">
          <mxGeometry x="665" y="520" width="120" height="70" as="geometry" />
        </mxCell>
        <mxCell id="kIkZqFilC5yO_GPzNjYG-44" style="edgeStyle=orthogonalEdgeStyle;rounded=0;orthogonalLoop=1;jettySize=auto;html=1;" edge="1" parent="1" source="kIkZqFilC5yO_GPzNjYG-37" target="kIkZqFilC5yO_GPzNjYG-42">
          <mxGeometry relative="1" as="geometry" />
        </mxCell>
        <mxCell id="kIkZqFilC5yO_GPzNjYG-37" value="Faz o web scrapping no valorant api" style="rounded=0;whiteSpace=wrap;html=1;" vertex="1" parent="1">
          <mxGeometry x="880" y="520" width="120" height="50" as="geometry" />
        </mxCell>
        <mxCell id="kIkZqFilC5yO_GPzNjYG-42" value="" style="dashed=0;outlineConnect=0;html=1;align=center;labelPosition=center;verticalLabelPosition=bottom;verticalAlign=top;shape=mxgraph.weblogos.google" vertex="1" parent="1">
          <mxGeometry x="1150" y="520.5999999999999" width="45.2" height="49.4" as="geometry" />
        </mxCell>
        <mxCell id="kIkZqFilC5yO_GPzNjYG-43" value="Extrai para o mapa escolhido" style="rounded=0;whiteSpace=wrap;html=1;" vertex="1" parent="1">
          <mxGeometry x="880" y="570" width="120" height="50" as="geometry" />
        </mxCell>
        <mxCell id="kIkZqFilC5yO_GPzNjYG-45" value="Retorna uma comp encontrada para o mapa passado" style="rounded=0;whiteSpace=wrap;html=1;" vertex="1" parent="1">
          <mxGeometry x="880" y="620" width="120" height="50" as="geometry" />
        </mxCell>
        <mxCell id="kIkZqFilC5yO_GPzNjYG-46" value="&lt;div&gt;Deixar os personagens em memÃ³ria?&lt;/div&gt;&lt;div&gt;Ou algum arquivo de configuraÃ§Ã£o&lt;br&gt;&lt;/div&gt;" style="ellipse;shape=cloud;whiteSpace=wrap;html=1;fillColor=#e1d5e7;strokeColor=#9673a6;" vertex="1" parent="1">
          <mxGeometry x="350" y="570" width="230" height="130" as="geometry" />
        </mxCell>
        <mxCell id="kIkZqFilC5yO_GPzNjYG-47" style="edgeStyle=orthogonalEdgeStyle;rounded=0;orthogonalLoop=1;jettySize=auto;html=1;entryX=0.906;entryY=0.408;entryDx=0;entryDy=0;entryPerimeter=0;curved=1;" edge="1" parent="1" source="kIkZqFilC5yO_GPzNjYG-33" target="kIkZqFilC5yO_GPzNjYG-46">
          <mxGeometry relative="1" as="geometry" />
        </mxCell>
      </root>
    </mxGraphModel>
  </diagram>
</mxfile>
